<?xml version="1.0" encoding="UTF-8"?>
<!DOCTYPE svg PUBLIC "-//W3C//DTD SVG 1.1//EN" "http://www.w3.org/Graphics/SVG/1.1/DTD/svg11.dtd">
<svg xmlns="http://www.w3.org/2000/svg" xml:space="preserve" width="6.47141in" height="7.37407in" version="1.1" style="shape-rendering:geometricPrecision; text-rendering:geometricPrecision; image-rendering:optimizeQuality; fill-rule:evenodd; clip-rule:evenodd"
viewBox="0 0 1073.5 1223.24" preserveAspectRatio="xMinYMid meet"
 xmlns:xlink="http://www.w3.org/1999/xlink">
 <defs>
  <style type="text/css">
   <![CDATA[
    .fil0 {fill:#211D59}
    .fil1 {fill:#54C6CF}
   ]]>
  </style>
 </defs>
 <g id="layer1">
  <g id="group1">
   <path class="fil0" d="M488.37 928.37l241.88 0 0 244.19 -241.88 0 0 -244.19zm-440 -94.45c5.46,3.66 19.83,22.86 32.93,33.88 37.45,31.49 92.33,60.57 146.76,60.57l209.63 0 0 244.19 -195.81 0c-41.97,0 -75.37,-13 -101.84,-29.47 -60.46,-37.62 -92.07,-100.29 -91.69,-175.54 0.23,-44.52 0.02,-89.1 0.02,-133.63zm439.14 46.22c0.16,-53.03 0.03,-106.07 0.03,-159.1 -0,-53.3 2.31,-95.76 26.05,-133.75 21.43,-34.29 44.06,-57.84 82.01,-77.08 39.2,-19.86 85.1,-24.62 136.85,-20.81l0.02 390.7 -244.95 0.04zm293.86 -391.16l242.9 0.23c2.46,15.85 0.88,131.83 0.88,158.11 0,55.07 -1.65,93.45 -25.03,134.01 -18.08,31.36 -47.62,61.45 -81.34,77.63 -50.72,24.34 -75.79,21.02 -138.21,21.17l0.81 -391.14zm-732.99 146.83l269.52 -0.04c54.64,0 96.3,35.02 111.59,72.64 16.46,40.47 10.07,121.39 10.21,171.43l-190.91 0.28c-111,0 -200.46,-82.38 -200.44,-193.63l0.01 -39.16 0.01 -11.51zm-0 -292.57l191.2 0c105.78,0 185,76.24 197.57,168.71 4.09,30.13 0.55,90.48 0.55,123.85 -7.34,-4.92 -12.67,-11.62 -21.34,-17.82 -7.53,-5.38 -16.55,-10.48 -24.67,-14.49 -13.87,-6.84 -41.67,-16.07 -62.25,-16.07l-281.04 0 0 -244.19zm0 -55.29l0 -237.28 345.55 0c100.96,0 178.7,42.37 244.77,107.69 68.52,67.73 93.86,162.75 93.86,260.9l0 20.73c-61.19,0 -109.84,-1.27 -164.3,29.21 -36.6,20.49 -53.86,37.61 -79.89,67.55 0,-115.22 -83,-213.29 -191.33,-237.14 -36.01,-7.93 -180.11,-4.95 -232.74,-4.54 -8.59,0.07 -15.93,1.78 -15.93,-7.11zm-48.38 -264.92l0 969.84c0,34.46 13.8,74.6 26.66,97.74 4.04,7.27 6.33,12.87 10.6,19.35 4.39,6.67 8.99,12.11 13.74,18.51 51.64,69.65 130.05,94.76 218.54,94.76l476.85 0c17.35,0 34.55,-5.75 34.55,-25.34l0 -269.53c61.56,0 99.44,4.63 155.88,-23.8 51.38,-25.87 89.33,-63.61 114.44,-115.92 10.88,-22.67 22.24,-60.53 22.24,-92.94l0 -232.67c0,-14.41 -12.77,-23.04 -27.64,-23.04l-264.92 0c0,-87.24 -0.13,-141.31 -39.92,-220.39 -20.81,-41.35 -52.47,-86.42 -88.4,-116.63 -5.41,-4.55 -7.23,-7.54 -13.16,-12.18 -91.16,-71.35 -165.61,-90.8 -291.6,-90.8l-313.3 0c-17.5,0 -34.55,5.91 -34.55,23.04z"/>
   <path class="fil1" d="M487.51 880.14l244.95 -0.04 -0.02 -390.7c-51.74,-3.81 -97.65,0.95 -136.85,20.81 -37.94,19.23 -60.57,42.79 -82.01,77.08 -23.74,37.99 -26.05,80.45 -26.05,133.75 0,53.03 0.13,106.08 -0.03,159.1z"/>
   <path class="fil1" d="M780.56 880.13c62.42,-0.15 87.49,3.18 138.21,-21.17 33.72,-16.18 63.26,-46.27 81.34,-77.63 23.38,-40.56 25.03,-78.94 25.03,-134.01 0,-26.27 1.58,-142.26 -0.88,-158.11l-242.9 -0.23 -0.81 391.14z"/>
   <path class="fil1" d="M48.36 647.33l-0.01 39.16c-0.02,111.25 89.45,193.63 200.44,193.63l190.91 -0.28c-0.14,-50.03 6.24,-130.95 -10.21,-171.43 -15.3,-37.61 -56.95,-72.64 -111.59,-72.64l-269.52 0.04 -0.01 11.51z"/>
  </g>
 </g>
</svg>
