<?xml version="1.0" encoding="UTF-8"?>
<!DOCTYPE svg PUBLIC "-//W3C//DTD SVG 1.1//EN" "http://www.w3.org/Graphics/SVG/1.1/DTD/svg11.dtd">
<svg xmlns="http://www.w3.org/2000/svg" xml:space="preserve" width="27.816in" height="8.11154in" version="1.1" style="shape-rendering:geometricPrecision; text-rendering:geometricPrecision; image-rendering:optimizeQuality; fill-rule:evenodd; clip-rule:evenodd"
viewBox="0 0 19833.18 5783.64"
 xmlns:xlink="http://www.w3.org/1999/xlink">
 <defs>
  <style type="text/css">
   <![CDATA[
    .fil0 {fill:#211D59}
    .fil1 {fill:#54C6CF}
    .fil2 {fill:#7C7599}
   ]]>
  </style>
 </defs>
 <g id="layer1">
  <g id="group1">
   <path class="fil0" d="M2099.17 3990.4l1039.68 0 0 1049.58 -1039.68 0 0 -1049.58zm-1891.23 -405.97c23.49,15.73 85.24,98.28 141.54,145.61 160.99,135.37 396.87,260.36 630.8,260.36l901.06 0 0 1049.58 -841.65 0c-180.41,0 -323.95,-55.9 -437.72,-126.68 -259.88,-161.68 -395.75,-431.07 -394.09,-754.51 0.99,-191.36 0.06,-382.98 0.06,-574.37zm1887.53 198.68c0.71,-227.93 0.13,-455.94 0.13,-683.87 -0.01,-229.09 9.93,-411.62 111.98,-574.89 92.12,-147.37 189.38,-248.63 352.48,-331.29 168.48,-85.38 365.79,-105.83 588.2,-89.46l0.08 1679.35 -1052.87 0.16zm1263.09 -1681.31l1044.05 1c10.57,68.12 3.76,566.65 3.76,679.58 0,236.71 -7.11,401.66 -107.6,576 -77.69,134.79 -204.67,264.12 -349.61,333.68 -218.02,104.63 -325.76,90.33 -594.08,90.98l3.48 -1681.25zm-3150.61 631.12l1158.49 -0.17c234.84,0 413.91,150.54 479.65,312.22 70.74,173.96 43.29,521.77 43.9,736.84l-820.6 1.2c-477.09,0 -861.62,-354.11 -861.56,-832.29l0.05 -168.33 0.06 -49.47zm-0.01 -1257.56l821.84 0c454.66,0 795.19,327.71 849.2,725.18 17.6,129.51 2.35,388.89 2.35,532.34 -31.55,-21.13 -54.44,-49.95 -91.74,-76.59 -32.35,-23.11 -71.13,-45.06 -106.06,-62.27 -59.63,-29.39 -179.11,-69.07 -267.59,-69.07l-1208.01 0 0 -1049.58zm0 -237.64l0 -1019.88 1485.26 0c433.96,0 768.08,182.13 1052.1,462.86 294.54,291.13 403.45,699.56 403.45,1121.41l0 89.12c-262.99,0 -472.12,-5.48 -706.21,125.54 -157.33,88.06 -231.52,161.65 -343.37,290.34 0,-495.27 -356.77,-916.8 -822.41,-1019.31 -154.79,-34.08 -774.17,-21.26 -1000.36,-19.51 -36.91,0.28 -68.46,7.64 -68.46,-30.56zm-207.94 -1138.7l0 4168.63c0,148.14 59.31,320.66 114.59,420.1 17.38,31.27 27.22,55.31 45.55,83.18 18.87,28.69 38.64,52.06 59.04,79.58 221.95,299.38 558.98,407.31 939.33,407.31l2049.66 0c74.55,0 148.53,-24.74 148.53,-108.92l0 -1158.5c264.62,0 427.43,19.88 670.04,-102.3 220.83,-111.21 383.97,-273.43 491.9,-498.27 46.77,-97.42 95.58,-260.16 95.58,-399.5l0 -1000.08c0,-61.95 -54.9,-99.02 -118.82,-99.02l-1138.7 0c0,-374.98 -0.56,-607.39 -171.61,-947.28 -89.45,-177.75 -225.52,-371.44 -379.96,-501.3 -23.25,-19.55 -31.08,-32.39 -56.57,-52.34 -391.81,-306.68 -711.84,-390.3 -1253.39,-390.3l-1346.64 0c-75.21,0 -148.53,25.42 -148.53,99.02z"/>
   <path class="fil1" d="M2095.47 3783.11l1052.87 -0.16 -0.08 -1679.35c-222.41,-16.37 -419.72,4.08 -588.2,89.46 -163.1,82.66 -260.36,183.92 -352.48,331.29 -102.05,163.27 -111.99,345.8 -111.98,574.89 0,227.93 0.58,455.94 -0.13,683.87z"/>
   <path class="fil1" d="M3355.08 3783.05c268.32,-0.65 376.06,13.65 594.08,-90.98 144.94,-69.56 271.92,-198.89 349.61,-333.68 100.49,-174.34 107.6,-339.29 107.6,-576 0,-112.93 6.81,-611.46 -3.76,-679.58l-1044.05 -1 -3.48 1681.25z"/>
   <path class="fil1" d="M207.89 2782.39l-0.05 168.33c-0.07,478.18 384.47,832.29 861.56,832.29l820.6 -1.2c-0.61,-215.06 26.84,-562.87 -43.9,-736.84 -65.74,-161.68 -244.81,-312.22 -479.65,-312.22l-1158.49 0.17 -0.06 49.47z"/>
  </g>
  <g id="group2">
   <path class="fil0" d="M6396.52 2178.38c12.62,54.17 32.61,94.72 52.46,145.57l109.67 286.4c19.32,54.44 43.28,98.9 55.71,152.23l-445.58 0c3.59,-43.19 87.09,-240.81 107.76,-298.21 12.27,-34.07 92.98,-266.21 119.98,-285.99zm-643.61 1059.49c0,70.1 46.72,108.92 118.82,108.92 85.57,0 103.84,-101.87 130.15,-166.9 27.11,-67.02 54.59,-156.71 87.69,-219.26l604.01 0c10.23,43.93 122.92,333.34 147.27,357.72 47.12,47.19 179.49,50.86 179.49,-80.48 0,-48.62 -414.04,-1102.7 -469.33,-1233.77 -62.21,-147.47 -244.39,-156.7 -315.77,-6.82l-482.31 1240.58z"/>
   <path class="fil0" d="M8584.8 5079.59c-55.94,0 -111.65,-13.47 -152.05,-36.09 -27.42,-15.35 -85.6,-58.31 -85.6,-92.63l0 -336.66c0,-52.71 232.14,-253.51 423.56,-47.29 173.4,186.81 39.48,512.67 -185.92,512.67zm-247.54 -683.22c-3.12,-140.16 -207.94,-137.38 -207.94,29.71l0 1227.82c0,164.25 181.17,161.32 212.43,54 13.62,-46.76 5.41,-111.32 5.41,-162.92 -0.01,-115.52 0,-231.04 0,-346.56 34.91,9.32 70.3,40.26 113.19,55.14 301.88,104.71 609.63,-142.81 609.63,-461.11 0,-401.24 -362.45,-605.55 -614.24,-475.61 -86.55,44.67 -72,67.13 -118.49,79.54z"/>
   <path class="fil0" d="M12822.74 4553.51c-22.33,-35.26 -4.8,-463.49 -3.95,-537.21 30.27,-6.01 221.13,-13.01 235.76,3.81 169.2,11.28 302.05,173.96 226.71,369.41 -63.34,164.3 -229.69,175.56 -458.52,164zm-227.74 -642.32l0 1237.72c0,161.09 227.74,161.09 227.74,-19.8l0 -376.27c223.37,0 408.03,26.19 577.13,-135.8 33.28,-31.88 72.73,-89.03 92.25,-135.49 52.21,-124.26 59.03,-264.95 0.82,-389.01 -156.39,-333.33 -481.67,-280.37 -798.92,-280.37 -49.78,0 -99.02,49.23 -99.02,99.02z"/>
   <path class="fil0" d="M5772.71 4495.39c0,246.44 44.82,404.59 215.32,576.82 337,340.43 972.89,194.3 972.89,-2.52 0,-63.36 -48.37,-89.12 -108.92,-89.12 -54.36,0 -144.67,89.12 -336.66,89.12 -495.24,0 -651.79,-568.57 -387.85,-902.74 125.38,-158.75 379.59,-209.07 572.11,-133.06 42.05,16.6 94.28,55.53 142.5,55.53 50.68,0 99.02,-52.08 99.02,-99.02 0,-139.82 -300.54,-198.04 -475.28,-198.04 -371.19,0 -693.12,330.69 -693.12,703.02z"/>
   <path class="fil0" d="M11604.83 1940.74l0 1297.13c0,110.3 143.24,149.01 199.95,61.32 33.96,-52.52 17.21,-437.76 17.33,-537.17 0.07,-61.47 5.17,-69.13 37.32,-101.31 92.81,-92.89 119.73,-96.17 240.49,-96.17 59.55,0 120.2,51.66 139.37,118.08 33.76,116.96 -21.64,550.1 26.48,617.13 62.25,86.71 190.61,45.6 190.61,-42.09l0 -584.2c0,-170.15 -146.3,-306.95 -346.56,-306.95 -143.2,0 -202.32,62.02 -287.15,118.82l-1.88 -562.52c-22.03,-135.88 -215.96,-112.55 -215.96,17.93z"/>
   <path class="fil0" d="M8463.85 3257.67l6.92 -524.86 440.79 -2.07c123.78,7.84 145.18,-189.59 -19.45,-196.26 -125.18,-5.08 -291.01,-4.19 -416.23,1.52 -21.39,-37.51 -9.86,-406.1 -5.77,-432.55 62.36,-17.8 409.38,-6.7 500.85,-6.55 117.6,8.07 129.64,-159.98 34.98,-191.14 -24.85,-8.18 -651.89,-15.17 -699.39,4.28 -83.46,34.17 -58.41,178.64 -58.41,307.95 0,94.65 -11.55,1016.99 6.39,1062.99 38.8,99.47 210.11,84.59 209.31,-23.31z"/>
   <path class="fil0" d="M17763.71 4465.68c133.49,0 245.12,49.89 257.45,198.03l-475.28 0c3.98,-47.81 42.62,-109.87 71.25,-136.68 30.06,-28.14 91.46,-61.35 146.58,-61.35zm-445.58 306.95c0,646.36 851.55,553.15 851.55,356.46 0,-184.43 -193.72,-49.51 -297.05,-49.51 -182.59,0 -332.83,-85.32 -336.66,-257.44l534.69 0c205.85,0 156.76,-201.42 109.11,-297.24 -54.27,-109.12 -94.16,-156.85 -208.11,-207.76 -305.49,-136.49 -653.52,98.99 -653.52,455.49z"/>
   <path class="fil0" d="M10901.81 3178.46c-119.28,0 -230.69,-146 18.42,-219.22 48.63,-14.29 166.79,-38.23 229.12,-38.23 0,134.6 23.41,156.98 -100.59,216.26 -34.57,16.53 -99.9,41.18 -146.95,41.18zm-168.33 -554.5c25.56,0 415.87,-192.35 415.87,99.02l0 39.61c-165.35,0 -584.2,60.6 -584.2,306.95 0,299.96 301.51,352.78 505.75,228.5 32.09,-19.53 45.8,-32.99 78.45,-50.27 3.12,140.17 207.94,137.38 207.94,-29.71 0,-132.41 10.96,-527.76 -15.89,-637.62 -12.95,-52.99 -33.48,-80.24 -65.5,-112.73 -145.13,-147.21 -424.8,-114.84 -570.4,-30.17 -126.13,73.36 -46.75,186.41 27.99,186.41z"/>
   <path class="fil0" d="M13981.25 5089.49c-190.42,0 -163.49,-138.26 -99.33,-178.55 59.98,-37.67 259,-73.23 327.07,-78.9l0 158.43c-54,28.58 -138.98,99.02 -227.74,99.02zm-277.25 -653.51c0,194.82 195.17,39.61 316.86,39.61 54.18,0 126.05,4.7 160.68,47.25 26.82,32.95 27.45,92.76 27.45,150.78 -58.38,13.6 -136.6,19.35 -198.14,29.6 -175.9,29.3 -386.06,86.83 -386.06,307.06 0,214.12 243.81,360.78 520.83,194.08 27.35,-16.46 41.02,-30.59 63.37,-45.55 3.16,141.9 207.94,145.46 207.94,-19.8l0 -514.89c0,-118.28 -27.9,-196.72 -91.32,-255.24 -191.29,-176.46 -621.6,-59.97 -621.6,67.1z"/>
   <path class="fil0" d="M7446.1 5089.49c-45.73,0 -78.87,2.71 -112.22,-26.4 -50.44,-44.03 -48.8,-115.05 12.94,-152.09 64.64,-38.78 253.29,-72.82 327.02,-78.95l0 158.43c-59.64,31.56 -139.9,99.02 -227.74,99.02zm-198.04 -554.5c49.94,0 72.71,-18.8 114.88,-33.64 75.32,-26.52 224.1,-52.08 282.07,22.86 25.51,32.98 28.82,88.82 28.82,149.41 -135.83,31.64 -203.67,14.16 -380.18,75.3 -411.39,142.5 -144.58,685.05 251.74,489.39 85.51,-42.22 58.41,-32.61 128.44,-79.5 3.13,140.55 207.94,158.22 207.94,-39.61l0 -455.48c0,-169.5 -34.7,-299.35 -189.2,-355.4 -145.63,-52.82 -331.44,-26.59 -447.96,35.09 -38.15,20.2 -76.23,43.91 -81.17,95.29 -4.37,45.41 28.85,96.28 84.61,96.28z"/>
   <path class="fil0" d="M10852.3 5089.49c-172.8,0 -268.81,-215.3 237.64,-257.45l0 158.43c-58.44,39.14 -142.44,99.02 -237.64,99.02zm-267.35 -653.51c0,191.45 173.22,39.61 356.46,39.61 150.47,0 148.53,108.59 148.53,198.04 -173.78,40.48 -584.2,26.77 -584.2,336.66 0,212.71 241.69,334.51 455.66,227.93 94.15,-46.9 57.3,-31.7 128.54,-79.4 3.11,139.71 207.94,148.6 207.94,-19.8l0 -534.69c0,-320.62 -317.82,-376.76 -573,-285.85 -52.82,18.82 -139.92,46.31 -139.92,117.53z"/>
   <path class="fil0" d="M9456.15 3178.46c-135.87,0 -214.8,-161.1 17.5,-220.14 45.51,-11.57 165.07,-37.3 220.14,-37.3l0 138.63c0,49.42 -171.84,118.82 -237.64,118.82zm-168.33 -554.5c71.81,0 57.18,-59.41 277.25,-59.41 149.72,0 128.72,113.3 128.72,198.04 -172.47,3.84 -574.3,63.51 -574.3,306.95 0,160.78 80.81,266.08 238.29,287.18 197.98,26.53 298.79,-96.37 345.92,-108.95 3.19,143.25 198.03,120.82 198.03,9.9l0 -633.71c0,-162.56 -170.81,-257.44 -356.46,-257.44 -278.53,0 -428.32,150.42 -322.95,233.81 9.2,7.28 53.73,23.64 65.5,23.64z"/>
   <path class="fil0" d="M16486.38 4406.27c-12.43,-149.35 -217.84,-147.41 -217.84,9.9l0 722.82c0,125.72 133.51,171.84 196.61,77.79 39.63,-59.08 20.27,-437.51 20.57,-543.83 0.58,-202.36 376.72,-295.99 418.45,-50.76 30.6,179.8 -29,547.07 34.5,609.12 68.77,67.21 181.43,23.39 181.43,-72.52l0 -554.5c0,-270.19 -323.15,-430.6 -574.47,-247.71 -24.85,18.08 -34.35,33.01 -59.24,49.68z"/>
   <path class="fil0" d="M19120.24 4564.7c0,315.42 504.99,259.83 504.99,435.68 0,73.04 -85.76,89.12 -158.43,89.12 -158.4,0 -213.84,-97.64 -296.25,-69.3 -122.9,42.26 -83.84,257.43 316.06,257.43 160.27,0 346.56,-100.6 346.56,-257.45 0,-113.91 3.31,-160.42 -105.83,-240.73 -125.55,-92.39 -489.35,-137.65 -377.48,-272 64.95,-78.02 241.49,-22.65 311.27,2.05 144.5,51.15 221.33,-128.42 24.95,-193.76 -277.5,-92.32 -565.82,4.02 -565.82,248.97z"/>
   <path class="fil0" d="M9634.38 4416.17c0,83.76 70.62,69.31 148.53,69.31l0 415.87c0,232.91 80.94,376.27 316.86,376.27 72.39,0 297.05,-38.21 297.05,-148.53 0,-156.53 -181.68,-66.45 -184.44,-65.63 -102.44,30.37 -211.62,24.43 -211.62,-112.61 0,-505.88 -34.31,-467.75 88.77,-465.72 184.64,3.04 287.49,29.94 287.49,-98.67 0,-124.72 -203.01,-89.12 -376.26,-89.12 0,-94.42 14.17,-148.53 -79.21,-148.53 -16.62,0 -287.15,215.78 -287.15,267.35z"/>
   <path class="fil0" d="M15357.58 4426.07c0,54.51 43.69,58.47 99.59,58.84 81.12,0.54 59.75,23.1 58.92,109.41 -1.04,108.78 -0.02,218.01 -0.09,326.84 -0.09,149.05 12.63,266.16 158.28,326.91 158.49,66.11 445.73,7.95 445.73,-128.87 0,-157.13 -207.99,-39.61 -257.44,-39.61 -99.12,0 -138.63,-48.96 -138.63,-148.53 0,-487.34 -32.87,-447.92 88.77,-445.92 202.32,3.33 287.49,25.94 287.49,-98.67 0,-124.72 -203.02,-89.12 -376.27,-89.12 0,-67.76 13.02,-148.53 -59.41,-148.53 -57.6,0 -128.33,88.27 -168.33,118.82 -37.21,28.42 -138.63,109.29 -138.63,158.43z"/>
   <path class="fil0" d="M11545.42 3871.58l0 1257.52c0,68.99 34.52,120.12 94.97,133.4 63.35,13.92 122.87,-40.74 122.87,-103.7l0 -1297.13c0,-162.14 -217.84,-158.98 -217.84,9.9z"/>
   <path class="fil0" d="M10159.18 1950.64l0 1277.33c0,158.98 217.84,164.84 217.84,-9.9l0 -1277.32c0,-137.64 -217.84,-157.8 -217.84,9.9z"/>
   <path class="fil0" d="M7198.56 1960.54l0 1257.52c0,174.74 217.84,168.88 217.84,9.9l0 -1297.13c0,-119.49 -217.84,-155.88 -217.84,29.71z"/>
   <path class="fil0" d="M14882.3 4435.98c0,-207.78 -217.84,-155.83 -217.84,-29.71l0 732.73c0,147.39 175.63,173.11 212.32,43.99 31.15,-109.65 -27.61,-500.56 27.54,-566.56 117.55,-140.7 223.55,-100.38 279.51,-116.56 47.64,-13.77 84.73,-59.21 81.63,-112.27 -7.65,-131.02 -205.74,-155.73 -383.16,48.38z"/>
   <path class="fil0" d="M18643.68 4426.07l-14.75 16.26 -6.68 -45.96c12.6,-133.15 -199.14,-138.97 -205.57,9.35 -5.88,135.64 0.55,288.66 0.55,426.33 0,102.76 -22.26,331.47 23.19,392.69 30.86,41.58 96.45,53.57 142.79,20.96 102.88,-72.41 7.54,-320.6 42.6,-571.44 6.01,-43 55.51,-95.61 90.05,-117.89 54.92,-35.43 82.75,-46.8 166.64,-51.19 167.14,-8.75 172.96,-187.4 45.77,-214.34 -120.31,-25.49 -238.24,73.77 -284.58,135.24z"/>
   <path class="fil0" d="M9268.02 4396.37l0 762.43c0,136.4 217.84,153.66 217.84,-29.71l0 -703.02c0,-185.59 -217.84,-149.19 -217.84,-29.71z"/>
   <path class="fil0" d="M9248.22 3970.59c0,166.03 257.45,157.93 257.45,0 0,-165.11 -257.45,-180.28 -257.45,0z"/>
   <path class="fil2" d="M8475.88 2536.01l0 -426.94 436.04 0.45c2.44,0.01 29.39,0.13 29.77,0.08 46.56,-6.73 11.2,1.4 29.28,-12.69 -91.48,-0.15 -438.5,-11.25 -500.85,6.55 -4.1,26.45 -15.62,395.04 5.77,432.55z"/>
   <path class="fil2" d="M8463.85 3257.67c8.56,-11.1 11.82,2.66 12.81,-48.87l-0.78 -466.02c42.77,0 400.9,14.78 435.68,-12.04l-440.79 2.07 -6.92 524.86z"/>
   <path class="fil2" d="M12822.74 4553.51l0 -533.4 231.81 0c-14.63,-16.82 -205.49,-9.82 -235.76,-3.81 -0.85,73.73 -18.38,501.96 3.95,537.21z"/>
   <path class="fil2" d="M18643.68 4426.07l-7.18 -11.87c-0.86,-1.17 -3.3,-4.67 -4.28,-5.97 -1.02,-1.35 -3.89,-4.73 -4.83,-5.95 -0.97,-1.25 -3.45,-3.93 -5.15,-5.92l6.68 45.96 14.75 -16.26z"/>
  </g>
 </g>
</svg>
