<?xml version="1.0" encoding="UTF-8"?>
<!DOCTYPE svg PUBLIC "-//W3C//DTD SVG 1.1//EN" "http://www.w3.org/Graphics/SVG/1.1/DTD/svg11.dtd">
<!-- Creator: CorelDRAW -->
<svg xmlns="http://www.w3.org/2000/svg" xml:space="preserve" width="30.0642in" height="2.86277in" version="1.1" style="shape-rendering:geometricPrecision; text-rendering:geometricPrecision; image-rendering:optimizeQuality; fill-rule:evenodd; clip-rule:evenodd"
viewBox="0 0 11629.41 1107.37"
 xmlns:xlink="http://www.w3.org/1999/xlink"
 xmlns:xodm="http://www.corel.com/coreldraw/odm/2003">
 <defs>
  <style type="text/css">
   <![CDATA[
    .fil0 {fill:#211D59}
    .fil1 {fill:#7C7599}
   ]]>
  </style>
 </defs>
 <g id="Слой_x0020_1">
  <metadata id="CorelCorpID_0Corel-Layer"/>
  <g id="_2789745067776">
   <path class="fil0" d="M349.17 192.88c6.85,29.39 17.69,51.39 28.46,78.98l59.5 155.37c10.48,29.53 23.48,53.66 30.22,82.59l-241.73 0c1.95,-23.43 47.25,-130.64 58.46,-161.78 6.66,-18.48 50.44,-144.42 65.09,-155.15zm-349.17 574.78c0,38.03 25.35,59.09 64.46,59.09 46.42,0 56.33,-55.26 70.61,-90.55 14.71,-36.36 29.61,-85.01 47.57,-118.95l327.68 0c5.55,23.83 66.69,180.84 79.89,194.07 25.56,25.6 97.38,27.59 97.38,-43.66 0,-26.38 -224.62,-598.23 -254.62,-669.33 -33.75,-80 -132.58,-85.01 -171.31,-3.7l-261.66 673.03z"/>
   <path class="fil0" d="M3174.74 63.95l0 703.71c0,59.84 77.71,80.84 108.47,33.27 18.43,-28.49 9.34,-237.49 9.4,-291.42 0.04,-33.35 2.81,-37.51 20.25,-54.96 50.35,-50.39 64.96,-52.17 130.47,-52.17 32.31,0 65.21,28.02 75.61,64.06 18.31,63.45 -11.74,298.44 14.37,334.8 33.77,47.04 103.41,24.74 103.41,-22.83l0 -316.94c0,-92.31 -79.37,-166.53 -188.01,-166.53 -77.69,0 -109.76,33.64 -155.78,64.46l-1.02 -305.18c-11.95,-73.71 -117.16,-61.06 -117.16,9.73z"/>
   <path class="fil0" d="M1470.72 778.41l3.76 -284.74 239.13 -1.12c67.15,4.25 78.76,-102.85 -10.55,-106.47 -67.91,-2.75 -157.88,-2.27 -225.81,0.83 -11.6,-20.35 -5.35,-220.31 -3.13,-234.67 33.83,-9.66 222.09,-3.64 271.72,-3.56 63.8,4.38 70.33,-86.79 18.98,-103.69 -13.48,-4.44 -353.66,-8.23 -379.43,2.32 -45.28,18.54 -31.69,96.92 -31.69,167.07 0,51.35 -6.27,551.73 3.47,576.69 21.05,53.96 113.99,45.89 113.55,-12.65z"/>
   <path class="fil0" d="M2793.34 735.43c-64.71,0 -125.15,-79.21 9.99,-118.93 26.38,-7.75 90.49,-20.74 124.3,-20.74 0,73.02 12.7,85.16 -54.57,117.33 -18.75,8.97 -54.2,22.34 -79.72,22.34zm-91.32 -300.82c13.86,0 225.62,-104.35 225.62,53.72l0 21.49c-89.7,0 -316.94,32.88 -316.94,166.53 0,162.73 163.57,191.39 274.37,123.96 17.41,-10.59 24.85,-17.9 42.56,-27.27 1.69,76.04 112.81,74.53 112.81,-16.12 0,-71.84 5.95,-286.32 -8.62,-345.92 -7.03,-28.75 -18.16,-43.53 -35.54,-61.16 -78.73,-79.86 -230.46,-62.3 -309.45,-16.37 -68.43,39.8 -25.36,101.13 15.18,101.13z"/>
   <path class="fil0" d="M2009.06 735.43c-73.71,0 -116.53,-87.4 9.49,-119.43 24.69,-6.27 89.55,-20.24 119.43,-20.24l0 75.21c0,26.81 -93.22,64.46 -128.92,64.46zm-91.32 -300.82c38.96,0 31.02,-32.23 150.41,-32.23 81.22,0 69.83,61.46 69.83,107.44 -93.57,2.08 -311.56,34.45 -311.56,166.53 0,87.22 43.84,144.35 129.27,155.8 107.4,14.39 162.1,-52.28 187.66,-59.11 1.73,77.72 107.44,65.55 107.44,5.37l0 -343.8c0,-88.19 -92.67,-139.67 -193.39,-139.67 -151.11,0 -232.37,81.61 -175.2,126.84 4.99,3.95 29.15,12.82 35.54,12.82z"/>
   <path class="fil0" d="M2390.46 69.33l0 692.96c0,86.25 118.18,89.43 118.18,-5.37l0 -692.96c0,-74.67 -118.18,-85.61 -118.18,5.37z"/>
   <path class="fil0" d="M784.28 74.7l0 682.22c0,94.8 118.18,91.62 118.18,5.37l0 -703.71c0,-64.82 -118.18,-84.57 -118.18,16.12z"/>
   <path class="fil1" d="M1477.25 386.9l0 -231.62 236.56 0.24c1.32,0.01 15.94,0.07 16.15,0.04 25.26,-3.65 6.07,0.76 15.88,-6.89 -49.63,-0.08 -237.89,-6.1 -271.72,3.56 -2.22,14.35 -8.48,214.32 3.13,234.67z"/>
   <path class="fil1" d="M1470.72 778.41c4.64,-6.02 6.41,1.44 6.95,-26.51l-0.42 -252.82c23.2,0 217.5,8.02 236.36,-6.53l-239.13 1.12 -3.76 284.74z"/>
   <g>
    <path class="fil0" d="M5527.02 725.42c-30.35,0 -60.57,-7.31 -82.49,-19.58 -14.88,-8.33 -46.44,-31.64 -46.44,-50.25l0 -182.64c0,-28.59 125.94,-137.53 229.79,-25.66 94.07,101.35 21.42,278.13 -100.86,278.13zm-134.3 -370.65c-1.69,-76.04 -112.81,-74.53 -112.81,16.12l0 666.11c0,89.11 98.29,87.52 115.25,29.3 7.39,-25.37 2.93,-60.39 2.93,-88.39 -0.01,-62.67 0,-125.34 0,-188.01 18.94,5.06 38.14,21.84 61.41,29.91 163.78,56.81 330.73,-77.48 330.73,-250.16 0,-217.68 -196.64,-328.52 -333.23,-258.03 -46.95,24.23 -39.06,36.42 -64.28,43.15z"/>
    <path class="fil0" d="M7826.16 440.01c-12.11,-19.13 -2.6,-251.45 -2.14,-291.45 16.42,-3.26 119.96,-7.06 127.9,2.07 91.79,6.12 163.87,94.38 122.99,200.41 -34.36,89.14 -124.61,95.25 -248.76,88.97zm-123.55 -348.47l0 671.48c0,87.39 123.55,87.39 123.55,-10.74l0 -204.13c121.18,0 221.36,14.21 313.1,-73.67 18.06,-17.3 39.46,-48.3 50.05,-73.51 28.32,-67.41 32.02,-143.74 0.45,-211.04 -84.84,-180.84 -261.31,-152.1 -433.42,-152.1 -27.01,0 -53.72,26.71 -53.72,53.72z"/>
    <path class="fil0" d="M4001.43 408.48c0,133.7 24.32,219.5 116.81,312.93 182.83,184.69 527.81,105.41 527.81,-1.37 0,-34.37 -26.24,-48.35 -59.09,-48.35 -29.49,0 -78.48,48.35 -182.64,48.35 -268.68,0 -353.6,-308.46 -210.41,-489.75 68.02,-86.12 205.93,-113.42 310.38,-72.19 22.81,9.01 51.15,30.13 77.31,30.13 27.49,0 53.72,-28.25 53.72,-53.72 0,-75.86 -163.05,-107.44 -257.85,-107.44 -201.37,0 -376.03,179.4 -376.03,381.4z"/>
    <path class="fil0" d="M10506.69 392.37c72.42,0 132.98,27.07 139.67,107.44l-257.85 0c2.16,-25.94 23.12,-59.61 38.66,-74.15 16.31,-15.27 49.62,-33.28 79.52,-33.28zm-241.73 166.53c0,350.66 461.98,300.09 461.98,193.39 0,-100.06 -105.1,-26.86 -161.15,-26.86 -99.06,0 -180.56,-46.29 -182.64,-139.67l290.08 0c111.68,0 85.05,-109.27 59.19,-161.25 -29.44,-59.2 -51.08,-85.09 -112.9,-112.71 -165.73,-74.05 -354.55,53.7 -354.55,247.11z"/>
    <path class="fil0" d="M8454.66 730.79c-103.3,0 -88.69,-75.01 -53.89,-96.86 32.54,-20.44 140.51,-39.73 177.44,-42.8l0 85.95c-29.3,15.5 -75.4,53.72 -123.55,53.72zm-150.41 -354.54c0,105.69 105.88,21.49 171.9,21.49 29.4,0 68.38,2.55 87.17,25.64 14.55,17.88 14.89,50.32 14.89,81.8 -31.67,7.38 -74.11,10.5 -107.49,16.06 -95.43,15.9 -209.44,47.11 -209.44,166.58 0,116.16 132.27,195.73 282.56,105.29 14.84,-8.93 22.26,-16.6 34.38,-24.71 1.72,76.98 112.81,78.91 112.81,-10.74l0 -279.33c0,-64.17 -15.13,-106.73 -49.54,-138.47 -103.78,-95.73 -337.23,-32.54 -337.23,36.41z"/>
    <path class="fil0" d="M4909.26 730.79c-24.81,0 -42.79,1.47 -60.88,-14.32 -27.36,-23.89 -26.47,-62.42 7.02,-82.51 35.07,-21.04 137.41,-39.5 177.41,-42.83l0 85.95c-32.35,17.12 -75.9,53.72 -123.55,53.72zm-107.44 -300.82c27.09,0 39.45,-10.2 62.33,-18.25 40.86,-14.39 121.58,-28.26 153.03,12.4 13.84,17.89 15.64,48.18 15.64,81.06 -73.69,17.17 -110.49,7.68 -206.25,40.85 -223.18,77.31 -78.43,371.65 136.57,265.5 46.39,-22.9 31.69,-17.69 69.68,-43.13 1.7,76.25 112.81,85.83 112.81,-21.49l0 -247.1c0,-91.96 -18.83,-162.4 -102.64,-192.81 -79.01,-28.66 -179.81,-14.43 -243.02,19.04 -20.7,10.96 -41.35,23.82 -44.03,51.7 -2.37,24.64 15.65,52.24 45.9,52.24z"/>
    <path class="fil0" d="M6757.17 730.79c-93.75,0 -145.83,-116.8 128.92,-139.67l0 85.95c-31.71,21.23 -77.27,53.72 -128.92,53.72zm-145.04 -354.54c0,103.87 93.98,21.49 193.39,21.49 81.63,0 80.58,58.91 80.58,107.44 -94.28,21.96 -316.94,14.52 -316.94,182.64 0,115.4 131.12,181.48 247.2,123.65 51.08,-25.44 31.09,-17.2 69.73,-43.08 1.69,75.79 112.81,80.62 112.81,-10.74l0 -290.08c0,-173.94 -172.42,-204.4 -310.86,-155.08 -28.66,10.21 -75.91,25.12 -75.91,63.76z"/>
    <path class="fil0" d="M9813.73 360.14c-6.74,-81.02 -118.18,-79.97 -118.18,5.37l0 392.14c0,68.2 72.43,93.23 106.66,42.2 21.5,-32.05 11,-237.35 11.16,-295.03 0.32,-109.79 204.37,-160.58 227.01,-27.54 16.6,97.55 -15.73,296.79 18.72,330.46 37.31,36.46 98.43,12.69 98.43,-39.34l0 -300.82c0,-146.58 -175.31,-233.61 -311.66,-134.39 -13.48,9.81 -18.63,17.91 -32.14,26.95z"/>
    <path class="fil0" d="M11242.63 446.08c0,171.12 273.96,140.96 273.96,236.36 0,39.62 -46.53,48.35 -85.95,48.35 -85.94,0 -116.01,-52.97 -160.72,-37.6 -66.67,22.93 -45.48,139.66 171.47,139.66 86.95,0 188.01,-54.58 188.01,-139.67 0,-61.8 1.79,-87.03 -57.41,-130.6 -68.11,-50.12 -265.48,-74.68 -204.79,-147.56 35.24,-42.32 131.01,-12.29 168.87,1.11 78.39,27.75 120.08,-69.67 13.53,-105.12 -150.55,-50.09 -306.97,2.18 -306.97,135.07z"/>
    <path class="fil0" d="M6096.44 365.51c0,45.44 38.31,37.6 80.58,37.6l0 225.62c0,126.36 43.91,204.13 171.9,204.13 39.27,0 161.15,-20.73 161.15,-80.58 0,-84.92 -98.56,-36.05 -100.06,-35.6 -55.58,16.47 -114.81,13.26 -114.81,-61.09 0,-274.45 -18.61,-253.76 48.16,-252.66 100.17,1.65 155.97,16.24 155.97,-53.53 0,-67.66 -110.14,-48.35 -204.13,-48.35 0,-51.22 7.69,-80.58 -42.97,-80.58 -9.02,0 -155.78,117.06 -155.78,145.04z"/>
    <path class="fil0" d="M9201.34 370.88c0,29.57 23.7,31.72 54.03,31.92 44.01,0.29 32.42,12.53 31.97,59.35 -0.57,59.02 -0.01,118.27 -0.05,177.32 -0.05,80.86 6.85,144.39 85.87,177.35 85.98,35.86 241.81,4.31 241.81,-69.92 0,-85.24 -112.84,-21.49 -139.67,-21.49 -53.78,0 -75.21,-26.56 -75.21,-80.58 0,-264.39 -17.83,-243 48.16,-241.92 109.76,1.81 155.97,14.07 155.97,-53.53 0,-67.66 -110.14,-48.35 -204.13,-48.35 0,-36.76 7.06,-80.58 -32.23,-80.58 -31.25,0 -69.62,47.89 -91.32,64.46 -20.18,15.42 -75.21,59.29 -75.21,85.95z"/>
    <path class="fil0" d="M7133.2 70.06l0 682.22c0,37.43 18.73,65.17 51.52,72.37 34.37,7.55 66.66,-22.1 66.66,-56.26l0 -703.71c0,-87.96 -118.18,-86.25 -118.18,5.37z"/>
    <path class="fil0" d="M8943.5 376.25c0,-112.73 -118.18,-84.54 -118.18,-16.12l0 397.51c0,79.96 95.28,93.91 115.19,23.86 16.9,-59.48 -14.98,-271.56 14.94,-307.37 63.77,-76.33 121.28,-54.46 151.64,-63.24 25.85,-7.47 45.97,-32.12 44.28,-60.91 -4.15,-71.08 -111.62,-84.48 -207.87,26.25z"/>
    <path class="fil0" d="M10984.09 370.88l-8 8.82 -3.62 -24.93c6.84,-72.23 -108.04,-75.39 -111.53,5.07 -3.19,73.59 0.3,156.6 0.3,231.29 0,55.75 -12.08,179.83 12.58,213.04 16.74,22.56 52.32,29.06 77.46,11.37 55.82,-39.28 4.09,-173.93 23.11,-310.01 3.26,-23.33 30.12,-51.87 48.85,-63.95 29.79,-19.22 44.89,-25.39 90.41,-27.77 90.68,-4.75 93.83,-101.66 24.83,-116.28 -65.27,-13.83 -129.25,40.02 -154.39,73.37z"/>
    <path class="fil0" d="M5897.68 354.76l0 413.63c0,74 118.18,83.36 118.18,-16.12l0 -381.4c0,-100.68 -118.18,-80.94 -118.18,-16.12z"/>
    <path class="fil0" d="M5886.93 123.78c0,90.08 139.67,85.68 139.67,0 0,-89.57 -139.67,-97.81 -139.67,0z"/>
    <path class="fil1" d="M7826.16 440.01l0 -289.38 125.76 0c-7.94,-9.13 -111.48,-5.33 -127.9,-2.07 -0.46,40 -9.97,272.32 2.14,291.45z"/>
    <path class="fil1" d="M10984.09 370.88l-3.89 -6.44c-0.47,-0.64 -1.79,-2.54 -2.32,-3.24 -0.55,-0.73 -2.11,-2.56 -2.62,-3.23 -0.53,-0.68 -1.87,-2.13 -2.79,-3.21l3.62 24.93 8 -8.82z"/>
   </g>
  </g>
 </g>
</svg>
