<?xml version="1.0" encoding="UTF-8"?>
<!DOCTYPE svg PUBLIC "-//W3C//DTD SVG 1.1//EN" "http://www.w3.org/Graphics/SVG/1.1/DTD/svg11.dtd">
<!-- Creator: CorelDRAW -->
<svg xmlns="http://www.w3.org/2000/svg" xml:space="preserve" width="19.7475in" height="5.54335in" version="1.1" style="shape-rendering:geometricPrecision; text-rendering:geometricPrecision; image-rendering:optimizeQuality; fill-rule:evenodd; clip-rule:evenodd"
viewBox="0 0 7071.16 1984.95"
 xmlns:xlink="http://www.w3.org/1999/xlink"
 xmlns:xodm="http://www.corel.com/coreldraw/odm/2003">
 <defs>
  <style type="text/css">
   <![CDATA[
    .fil0 {fill:white}
   ]]>
  </style>
 </defs>
 <g id="Слой_x0020_1">
  <metadata id="CorelCorpID_0Corel-Layer"/>
  <path class="fil0" d="M323.22 174.38c6.34,27.21 16.38,47.57 26.35,73.11l55.08 143.83c9.7,27.34 21.74,49.67 27.98,76.45l-223.77 0c1.8,-21.69 43.74,-120.94 54.12,-149.76 6.16,-17.11 46.7,-133.69 60.25,-143.63zm-323.22 532.08c0,35.2 23.47,54.7 59.67,54.7 42.98,0 52.15,-51.16 65.36,-83.82 13.62,-33.66 27.41,-78.7 44.04,-110.11l303.33 0c5.14,22.06 61.73,167.41 73.96,179.65 23.66,23.7 90.14,25.54 90.14,-40.41 0,-24.42 -207.93,-553.78 -235.7,-619.6 -31.24,-74.06 -122.73,-78.69 -158.58,-3.42l-242.22 623.02z"/>
  <path class="fil0" d="M1422.19 1631.37c-28.09,0 -56.07,-6.77 -76.36,-18.12 -13.77,-7.71 -42.99,-29.28 -42.99,-46.52l0 -169.07c0,-26.47 116.58,-127.31 212.71,-23.75 87.08,93.82 19.83,257.47 -93.37,257.47zm-124.32 -343.11c-1.57,-70.39 -104.43,-68.99 -104.43,14.92l0 616.61c0,82.49 90.99,81.02 106.68,27.12 6.84,-23.48 2.72,-55.9 2.72,-81.82 -0.01,-58.01 0,-116.03 0,-174.04 17.53,4.68 35.31,20.22 56.85,27.69 151.61,52.59 306.16,-71.72 306.16,-231.57 0,-201.5 -182.02,-304.11 -308.47,-238.85 -43.47,22.43 -36.16,33.71 -59.51,39.95z"/>
  <path class="fil0" d="M3550.49 1367.17c-11.21,-17.71 -2.41,-232.76 -1.98,-269.79 15.2,-3.02 111.05,-6.53 118.4,1.91 84.97,5.67 151.69,87.37 113.86,185.52 -31.81,82.51 -115.35,88.17 -230.27,82.36zm-114.37 -322.58l0 621.59c0,80.9 114.37,80.9 114.37,-9.95l0 -188.96c112.18,0 204.91,13.15 289.84,-68.2 16.71,-16.01 36.52,-44.71 46.33,-68.04 26.22,-62.41 29.64,-133.06 0.41,-195.36 -78.54,-167.4 -241.9,-140.8 -401.22,-140.8 -25,0 -49.73,24.73 -49.73,49.73z"/>
  <path class="fil0" d="M9.94 1337.99c0,123.76 22.51,203.19 108.13,289.68 169.24,170.97 488.59,97.58 488.59,-1.27 0,-31.82 -24.29,-44.75 -54.7,-44.75 -27.3,0 -72.65,44.75 -169.07,44.75 -248.71,0 -327.33,-285.54 -194.78,-453.36 62.97,-79.72 190.63,-105 287.32,-66.82 21.12,8.34 47.35,27.89 71.56,27.89 25.45,0 49.73,-26.15 49.73,-49.73 0,-70.22 -150.93,-99.45 -238.69,-99.45 -186.41,0 -348.09,166.07 -348.09,353.06z"/>
  <path class="fil0" d="M2938.86 55.03l0 651.42c0,55.39 71.94,74.84 100.41,30.8 17.06,-26.38 8.64,-219.84 8.7,-269.77 0.04,-30.87 2.6,-34.72 18.74,-50.88 46.61,-46.65 60.13,-48.3 120.78,-48.3 29.91,0 60.36,25.94 69.99,59.3 16.95,58.74 -10.87,276.26 13.3,309.93 31.26,43.55 95.73,22.9 95.73,-21.14l0 -293.39c0,-85.45 -73.47,-154.15 -174.04,-154.15 -71.91,0 -101.61,31.14 -144.21,59.67l-0.94 -282.5c-11.07,-68.24 -108.46,-56.52 -108.46,9z"/>
  <path class="fil0" d="M1361.44 716.4l3.48 -263.59 221.37 -1.04c62.16,3.94 72.91,-95.21 -9.77,-98.56 -62.87,-2.55 -146.15,-2.1 -209.03,0.76 -10.74,-18.84 -4.95,-203.95 -2.9,-217.23 31.31,-8.94 205.59,-3.37 251.53,-3.29 59.06,4.05 65.11,-80.34 17.57,-95.99 -12.48,-4.11 -327.38,-7.62 -351.24,2.15 -41.91,17.16 -29.34,89.72 -29.34,154.65 0,47.53 -5.8,510.74 3.21,533.84 19.49,49.95 105.52,42.48 105.12,-11.71z"/>
  <path class="fil0" d="M6031.86 1323.07c67.04,0 123.1,25.06 129.29,99.45l-238.69 0c2,-24.01 21.4,-55.18 35.78,-68.64 15.1,-14.13 45.93,-30.81 73.61,-30.81zm-223.77 154.15c0,324.6 427.65,277.79 427.65,179.02 0,-92.62 -97.29,-24.86 -149.18,-24.86 -91.7,0 -167.15,-42.85 -169.07,-129.29l268.52 0c103.38,0 78.73,-101.15 54.79,-149.27 -27.26,-54.8 -47.29,-78.77 -104.51,-104.34 -153.42,-68.55 -328.2,49.71 -328.2,228.75z"/>
  <path class="fil0" d="M2585.79 676.62c-59.9,0 -115.85,-73.32 9.25,-110.09 24.42,-7.18 83.76,-19.2 115.07,-19.2 0,67.59 11.76,78.83 -50.52,108.61 -17.36,8.3 -50.17,20.68 -73.8,20.68zm-84.53 -278.47c12.83,0 208.85,-96.6 208.85,49.73l0 19.89c-83.04,0 -293.39,30.44 -293.39,154.15 0,150.64 151.42,177.17 253.99,114.75 16.12,-9.81 23,-16.57 39.4,-25.25 1.57,70.39 104.43,68.99 104.43,-14.92 0,-66.5 5.51,-265.04 -7.98,-320.21 -6.5,-26.61 -16.81,-40.3 -32.9,-56.61 -72.88,-73.93 -213.34,-57.67 -286.46,-15.15 -63.34,36.84 -23.48,93.62 14.06,93.62z"/>
  <path class="fil0" d="M4132.3 1636.35c-95.63,0 -82.1,-69.43 -49.89,-89.67 30.12,-18.92 130.07,-36.78 164.26,-39.62l0 79.56c-27.12,14.35 -69.8,49.73 -114.37,49.73zm-139.24 -328.2c0,97.84 98.02,19.89 159.13,19.89 27.21,0 63.3,2.36 80.7,23.73 13.47,16.55 13.78,46.58 13.78,75.72 -29.32,6.83 -68.6,9.72 -99.5,14.87 -88.34,14.72 -193.88,43.61 -193.88,154.2 0,107.53 122.44,181.18 261.56,97.47 13.74,-8.27 20.6,-15.36 31.82,-22.88 1.59,71.26 104.43,73.05 104.43,-9.95l0 -258.58c0,-59.4 -14.01,-98.8 -45.86,-128.18 -96.07,-88.62 -312.17,-30.12 -312.17,33.7z"/>
  <path class="fil0" d="M850.33 1636.35c-22.97,0 -39.61,1.36 -56.36,-13.26 -25.33,-22.11 -24.51,-57.78 6.5,-76.38 32.46,-19.47 127.2,-36.57 164.23,-39.65l0 79.56c-29.95,15.85 -70.26,49.73 -114.37,49.73zm-99.45 -278.47c25.08,0 36.52,-9.44 57.69,-16.9 37.83,-13.32 112.54,-26.16 141.66,11.48 12.81,16.56 14.48,44.6 14.48,75.03 -68.22,15.89 -102.28,7.11 -190.93,37.82 -206.6,71.56 -72.61,344.03 126.43,245.77 42.94,-21.2 29.33,-16.38 64.5,-39.93 1.57,70.59 104.43,79.46 104.43,-19.89l0 -228.74c0,-85.13 -17.43,-150.34 -95.02,-178.48 -73.14,-26.53 -166.45,-13.36 -224.96,17.62 -19.16,10.14 -38.28,22.05 -40.76,47.86 -2.19,22.81 14.49,48.35 42.49,48.35z"/>
  <path class="fil0" d="M2560.93 1636.35c-86.78,0 -135,-108.13 119.34,-129.29l0 79.56c-29.35,19.65 -71.53,49.73 -119.34,49.73zm-134.26 -328.2c0,96.15 86.99,19.89 179.02,19.89 75.57,0 74.59,54.53 74.59,99.45 -87.27,20.33 -293.39,13.44 -293.39,169.07 0,106.82 121.38,167.99 228.84,114.47 47.28,-23.55 28.78,-15.92 64.55,-39.87 1.56,70.16 104.43,74.63 104.43,-9.95l0 -268.52c0,-161.02 -159.61,-189.21 -287.77,-143.56 -26.53,9.45 -70.27,23.26 -70.27,59.02z"/>
  <path class="fil0" d="M1859.78 676.62c-68.23,0 -107.87,-80.91 8.79,-110.56 22.85,-5.81 82.9,-18.73 110.56,-18.73l0 69.62c0,24.82 -86.3,59.67 -119.34,59.67zm-84.53 -278.47c36.06,0 28.71,-29.84 139.23,-29.84 75.19,0 64.64,56.9 64.64,99.45 -86.61,1.93 -288.41,31.89 -288.41,154.15 0,80.74 40.58,133.63 119.67,144.23 99.42,13.32 150.06,-48.4 173.72,-54.72 1.6,71.94 99.45,60.68 99.45,4.97l0 -318.25c0,-81.64 -85.78,-129.29 -179.02,-129.29 -139.88,0 -215.1,75.54 -162.19,117.42 4.62,3.66 26.99,11.87 32.9,11.87z"/>
  <path class="fil0" d="M5390.39 1293.23c-6.24,-75 -109.4,-74.03 -109.4,4.97l0 363.01c0,63.14 67.05,86.3 98.74,39.06 19.9,-29.67 10.18,-219.72 10.33,-273.11 0.29,-101.63 189.19,-148.65 210.15,-25.49 15.36,90.3 -14.56,274.74 17.32,305.9 34.53,33.75 91.11,11.75 91.11,-36.42l0 -278.47c0,-135.69 -162.29,-216.25 -288.5,-124.4 -12.48,9.08 -17.25,16.58 -29.75,24.95z"/>
  <path class="fil0" d="M6713.12 1372.8c0,158.41 253.61,130.49 253.61,218.8 0,36.68 -43.07,44.75 -79.56,44.75 -79.55,0 -107.39,-49.03 -148.78,-34.8 -61.72,21.22 -42.11,129.28 158.73,129.28 80.49,0 174.04,-50.52 174.04,-129.29 0,-57.21 1.66,-80.56 -53.15,-120.9 -63.05,-46.4 -245.75,-69.13 -189.57,-136.6 32.62,-39.18 121.28,-11.38 156.32,1.03 72.57,25.69 111.16,-64.49 12.53,-97.31 -139.36,-46.37 -284.16,2.02 -284.16,125.03z"/>
  <path class="fil0" d="M1949.29 1298.2c0,42.06 35.47,34.81 74.59,34.81l0 208.85c0,116.97 40.65,188.96 159.13,188.96 36.36,0 149.18,-19.19 149.18,-74.59 0,-78.61 -91.24,-33.37 -92.63,-32.96 -51.45,15.25 -106.28,12.27 -106.28,-56.55 0,-254.06 -17.23,-234.91 44.58,-233.89 92.73,1.53 144.38,15.04 144.38,-49.55 0,-62.64 -101.95,-44.75 -188.96,-44.75 0,-47.42 7.12,-74.59 -39.78,-74.59 -8.35,0 -144.21,108.37 -144.21,134.26z"/>
  <path class="fil0" d="M4823.5 1303.18c0,27.37 21.94,29.36 50.01,29.55 40.74,0.27 30.01,11.6 29.59,54.94 -0.52,54.63 -0.01,109.48 -0.04,164.14 -0.04,74.85 6.34,133.67 79.49,164.17 79.6,33.2 223.85,3.99 223.85,-64.72 0,-78.91 -104.45,-19.89 -129.29,-19.89 -49.78,0 -69.62,-24.59 -69.62,-74.59 0,-244.74 -16.51,-224.95 44.58,-223.94 101.6,1.67 144.38,13.02 144.38,-49.55 0,-62.64 -101.95,-44.75 -188.96,-44.75 0,-34.03 6.54,-74.59 -29.84,-74.59 -28.93,0 -64.45,44.33 -84.54,59.67 -18.68,14.27 -69.62,54.88 -69.62,79.56z"/>
  <path class="fil0" d="M2909.02 1024.71l0 631.53c0,34.65 17.33,60.32 47.69,67 31.82,6.99 61.71,-20.46 61.71,-52.08l0 -651.42c0,-81.43 -109.4,-79.84 -109.4,4.97z"/>
  <path class="fil0" d="M2212.84 60.01l0 641.48c0,79.84 109.4,82.78 109.4,-4.97l0 -641.48c0,-69.12 -109.4,-79.25 -109.4,4.97z"/>
  <path class="fil0" d="M726.01 64.98l0 631.53c0,87.75 109.4,84.81 109.4,4.97l0 -651.42c0,-60.01 -109.4,-78.28 -109.4,14.92z"/>
  <path class="fil0" d="M4584.81 1308.15c0,-104.35 -109.4,-78.26 -109.4,-14.92l0 367.98c0,74.02 88.2,86.94 106.63,22.09 15.64,-55.07 -13.86,-251.38 13.83,-284.53 59.03,-70.66 112.27,-50.41 140.37,-58.54 23.92,-6.92 42.55,-29.73 40.99,-56.38 -3.84,-65.8 -103.33,-78.21 -192.42,24.3z"/>
  <path class="fil0" d="M6473.79 1303.18l-7.41 8.16 -3.36 -23.08c6.33,-66.87 -100.01,-69.79 -103.24,4.7 -2.95,68.12 0.28,144.97 0.28,214.1 0,51.61 -11.18,166.47 11.64,197.21 15.5,20.88 48.44,26.9 71.71,10.52 51.67,-36.36 3.79,-161 21.4,-286.98 3.02,-21.6 27.88,-48.01 45.22,-59.2 27.58,-17.79 41.56,-23.5 83.69,-25.71 83.94,-4.39 86.86,-94.11 22.98,-107.64 -60.42,-12.8 -119.65,37.05 -142.92,67.92z"/>
  <path class="fil0" d="M1765.3 1288.26l0 382.9c0,68.5 109.4,77.17 109.4,-14.92l0 -353.06c0,-93.2 -109.4,-74.92 -109.4,-14.92z"/>
  <path class="fil0" d="M1755.36 1074.43c0,83.38 129.29,79.31 129.29,0 0,-82.92 -129.29,-90.54 -129.29,0z"/>
  <path class="fil0" d="M1367.49 353.98l0 -214.41 218.98 0.23c1.23,0.01 14.76,0.06 14.95,0.04 23.39,-3.38 5.62,0.7 14.7,-6.37 -45.94,-0.07 -220.22,-5.65 -251.53,3.29 -2.06,13.28 -7.85,198.39 2.9,217.23z"/>
  <path class="fil0" d="M1361.44 716.4c4.3,-5.58 5.93,1.34 6.44,-24.54l-0.39 -234.04c21.48,0 201.34,7.42 218.8,-6.05l-221.37 1.04 -3.48 263.59z"/>
  <path class="fil0" d="M3550.49 1367.17l0 -267.88 116.42 0c-7.35,-8.45 -103.2,-4.93 -118.4,-1.91 -0.43,37.03 -9.23,252.08 1.98,269.79z"/>
  <path class="fil0" d="M6473.79 1303.18l-3.6 -5.96c-0.43,-0.59 -1.66,-2.35 -2.15,-3 -0.51,-0.68 -1.95,-2.37 -2.43,-2.99 -0.49,-0.63 -1.73,-1.97 -2.59,-2.97l3.36 23.08 7.41 -8.16z"/>
 </g>
</svg>
